<svg xmlns="http://www.w3.org/2000/svg" viewBox="0 0 64 64" width="64" height="64">
  <defs>
    <linearGradient id="grad1" x1="0%" y1="0%" x2="100%" y2="100%">
      <stop offset="0%" style="stop-color:#3B82F6;stop-opacity:1" />
      <stop offset="100%" style="stop-color:#1D4ED8;stop-opacity:1" />
    </linearGradient>
  </defs>
  
  <!-- Background circle -->
  <circle cx="32" cy="32" r="30" fill="url(#grad1)" stroke="#1D4ED8" stroke-width="2"/>
  
  <!-- Calendar icon -->
  <rect x="18" y="20" width="28" height="26" rx="3" ry="3" fill="white" stroke="#1D4ED8" stroke-width="1.5"/>
  
  <!-- Calendar header -->
  <rect x="18" y="20" width="28" height="8" rx="3" ry="3" fill="#1D4ED8"/>
  
  <!-- Calendar rings -->
  <rect x="23" y="16" width="2" height="8" rx="1" ry="1" fill="#1D4ED8"/>
  <rect x="39" y="16" width="2" height="8" rx="1" ry="1" fill="#1D4ED8"/>
  
  <!-- Calendar grid dots -->
  <circle cx="24" cy="34" r="1.5" fill="#6B7280"/>
  <circle cx="32" cy="34" r="1.5" fill="#6B7280"/>
  <circle cx="40" cy="34" r="1.5" fill="#6B7280"/>
  <circle cx="24" cy="40" r="1.5" fill="#6B7280"/>
  <circle cx="32" cy="40" r="1.5" fill="#3B82F6"/>
  <circle cx="40" cy="40" r="1.5" fill="#6B7280"/>
  
  <!-- Event sparkles -->
  <path d="M12 12 L14 10 L16 12 L14 14 Z" fill="#FEF3C7"/>
  <path d="M50 14 L52 12 L54 14 L52 16 Z" fill="#FEF3C7"/>
  <path d="M10 50 L12 48 L14 50 L12 52 Z" fill="#FEF3C7"/>
  <path d="M52 50 L54 48 L56 50 L54 52 Z" fill="#FEF3C7"/>
</svg>